<svg xmlns="http://www.w3.org/2000/svg" viewBox="0 0 24 24" fill="currentColor" aria-hidden="true">
  <!-- Paramount-style stars -->
  <path d="M7 4.6l.22.62h.66l-.53.39.2.63-.55-.4-.55.4.2-.63-.53-.39h.66z"/>
  <path d="M9.8 4l.22.62h.66l-.53.39.2.63-.55-.4-.55.4.2-.63-.53-.39h.66z"/>
  <path d="M12.6 3.7l.22.62h.66l-.53.39.2.63-.55-.4-.55.4.2-.63-.53-.39h.66z"/>
  <path d="M15.4 4l.22.62h.66l-.53.39.2.63-.55-.4-.55.4.2-.63-.53-.39h.66z"/>
  <path d="M18.2 4.6l.22.62h.66l-.53.39.2.63-.55-.4-.55.4.2-.63-.53-.39h.66z"/>

  <!-- Shipping container -->
  <path d="M4 8.5h16A1.5 1.5 0 0 1 21.5 10v7A1.5 1.5 0 0 1 20 18.5H4A1.5 1.5 0 0 1 2.5 17v-7A1.5 1.5 0 0 1 4 8.5zm0 1a.5.5 0 0 0-.5.5v7a.5.5 0 0 0 .5.5h16a.5.5 0 0 0 .5-.5v-7a.5.5 0 0 0-.5-.5z"/>

  <!-- Container ribs -->
  <path d="M6.5 10.5h1v6h-1zm2.5 0h1v6H9zm2.5 0h1v6h-1zm2.5 0h1v6h-1zm2.5 0h1v6h-1z"/>

  <!-- End frame detail -->
  <path d="M4.8 10.5h1v6h-1zm13.4 0h1v6h-1z"/>
</svg>
