<svg xmlns="http://www.w3.org/2000/svg" viewBox="0 0 24 24" width="24" height="24">
  <g fill="currentColor">
    <!-- Container boxes -->
    <rect x="1" y="12" width="4" height="3" rx="0.5" stroke="currentColor" stroke-width="0.5" fill="none"/>
    <rect x="6" y="12" width="4" height="3" rx="0.5" stroke="currentColor" stroke-width="0.5" fill="none"/>
    <rect x="11" y="12" width="4" height="3" rx="0.5" stroke="currentColor" stroke-width="0.5" fill="none"/>
    <rect x="6" y="8.5" width="4" height="3" rx="0.5" stroke="currentColor" stroke-width="0.5" fill="none"/>
    <rect x="11" y="8.5" width="4" height="3" rx="0.5" stroke="currentColor" stroke-width="0.5" fill="none"/>
    <rect x="11" y="5" width="4" height="3" rx="0.5" stroke="currentColor" stroke-width="0.5" fill="none"/>
    <!-- Whale body -->
    <path d="M0.5 16 C0.5 16, 2 19.5, 8 19.5 C14 19.5, 17 18, 18.5 16 C20 14, 19 12, 17 12 L16 12" stroke="currentColor" stroke-width="1" fill="none"/>
    <!-- Whale spout -->
    <path d="M19 10 C19.5 8, 21 7, 22 8" stroke="currentColor" stroke-width="0.8" fill="none"/>
  </g>
</svg>
